<?xml version="1.0" encoding="UTF-8" standalone="no"?>
<!DOCTYPE svg PUBLIC "-//W3C//DTD SVG 1.1//EN"
 "http://www.w3.org/Graphics/SVG/1.1/DTD/svg11.dtd">
<!-- Generated by graphviz version 2.28.0 (20120228.1928)
 -->
<!-- Title: G Pages: 1 -->
<svg width="523pt" height="164pt"
 viewBox="0.00 0.00 523.00 164.00" xmlns="http://www.w3.org/2000/svg" xmlns:xlink="http://www.w3.org/1999/xlink">
<g id="graph1" class="graph" transform="scale(1 1) rotate(0) translate(4 160)">
<title>G</title>
<polygon fill="white" stroke="white" points="-4,5 -4,-160 520,-160 520,5 -4,5"/>
<!-- Node9 -->
<g id="node1" class="node"><title>Node9</title>
<polygon fill="#bfbfbf" stroke="black" points="299.25,-19.5 244.75,-19.5 244.75,-0.5 299.25,-0.5 299.25,-19.5"/>
<text text-anchor="middle" x="272" y="-7.5" font-family="Helvetica,sans-Serif" font-size="10.00">Inherited</text>
</g>
<!-- Node10 -->
<g id="node2" class="node"><title>Node10</title>
<a xlink:href="$classPublicBase.html" xlink:title="PublicBase">
<polygon fill="none" stroke="black" points="68,-87.5 0,-87.5 0,-68.5 68,-68.5 68,-87.5"/>
<text text-anchor="middle" x="34" y="-75.5" font-family="Helvetica,sans-Serif" font-size="10.00">PublicBase</text>
</a>
</g>
<!-- Node10&#45;&gt;Node9 -->
<g id="edge2" class="edge"><title>Node10&#45;&gt;Node9</title>
<path fill="none" stroke="midnightblue" d="M74.9712,-65.6382C123.48,-52.1863 202.923,-30.1557 244.568,-18.6073"/>
<polygon fill="midnightblue" stroke="midnightblue" points="73.8154,-62.3266 65.1143,-68.3717 75.686,-69.072 73.8154,-62.3266"/>
</g>
<!-- Node11 -->
<g id="node4" class="node"><title>Node11</title>
<a xlink:href="$classTruncated.html" xlink:title="Truncated">
<polygon fill="none" stroke="red" points="65.25,-155.5 2.75,-155.5 2.75,-136.5 65.25,-136.5 65.25,-155.5"/>
<text text-anchor="middle" x="34" y="-143.5" font-family="Helvetica,sans-Serif" font-size="10.00">Truncated</text>
</a>
</g>
<!-- Node11&#45;&gt;Node10 -->
<g id="edge4" class="edge"><title>Node11&#45;&gt;Node10</title>
<path fill="none" stroke="midnightblue" d="M34,-126.041C34,-113.472 34,-97.5631 34,-87.8411"/>
<polygon fill="midnightblue" stroke="midnightblue" points="30.5001,-126.372 34,-136.372 37.5001,-126.372 30.5001,-126.372"/>
</g>
<!-- Node13 -->
<g id="node6" class="node"><title>Node13</title>
<a xlink:href="$classProtectedBase.html" xlink:title="ProtectedBase">
<polygon fill="none" stroke="black" points="169.5,-87.5 86.5,-87.5 86.5,-68.5 169.5,-68.5 169.5,-87.5"/>
<text text-anchor="middle" x="128" y="-75.5" font-family="Helvetica,sans-Serif" font-size="10.00">ProtectedBase</text>
</a>
</g>
<!-- Node13&#45;&gt;Node9 -->
<g id="edge6" class="edge"><title>Node13&#45;&gt;Node9</title>
<path fill="none" stroke="darkgreen" d="M156.288,-64.0346C184.95,-50.898 228.481,-30.9463 253.17,-19.6305"/>
<polygon fill="darkgreen" stroke="darkgreen" points="154.458,-61.0233 146.825,-68.3717 157.374,-67.3868 154.458,-61.0233"/>
</g>
<!-- Node14 -->
<g id="node8" class="node"><title>Node14</title>
<a xlink:href="$classPrivateBase.html" xlink:title="PrivateBase">
<polygon fill="none" stroke="black" points="260,-87.5 188,-87.5 188,-68.5 260,-68.5 260,-87.5"/>
<text text-anchor="middle" x="224" y="-75.5" font-family="Helvetica,sans-Serif" font-size="10.00">PrivateBase</text>
</a>
</g>
<!-- Node14&#45;&gt;Node9 -->
<g id="edge8" class="edge"><title>Node14&#45;&gt;Node9</title>
<path fill="none" stroke="#8b1a1a" d="M236.409,-59.9377C245.737,-47.112 258.139,-30.0591 265.57,-19.8411"/>
<polygon fill="#8b1a1a" stroke="#8b1a1a" points="233.326,-58.2257 230.275,-68.3717 238.988,-62.3429 233.326,-58.2257"/>
</g>
<!-- Node15 -->
<g id="node10" class="node"><title>Node15</title>
<polygon fill="none" stroke="#bfbfbf" points="363.25,-87.5 278.75,-87.5 278.75,-68.5 363.25,-68.5 363.25,-87.5"/>
<text text-anchor="middle" x="321" y="-75.5" font-family="Helvetica,sans-Serif" font-size="10.00">Undocumented</text>
</g>
<!-- Node15&#45;&gt;Node9 -->
<g id="edge10" class="edge"><title>Node15&#45;&gt;Node9</title>
<path fill="none" stroke="midnightblue" d="M308.609,-60.3101C299.057,-47.4437 286.224,-30.1583 278.564,-19.8411"/>
<polygon fill="midnightblue" stroke="midnightblue" points="305.823,-62.4289 314.594,-68.3717 311.443,-58.2562 305.823,-62.4289"/>
</g>
<!-- Node16 -->
<g id="node12" class="node"><title>Node16</title>
<a xlink:href="$classTempl.html" xlink:title="Templ&lt; int &gt;">
<polygon fill="none" stroke="black" points="456,-87.5 382,-87.5 382,-68.5 456,-68.5 456,-87.5"/>
<text text-anchor="middle" x="419" y="-75.5" font-family="Helvetica,sans-Serif" font-size="10.00">Templ&lt; int &gt;</text>
</a>
</g>
<!-- Node16&#45;&gt;Node9 -->
<g id="edge12" class="edge"><title>Node16&#45;&gt;Node9</title>
<path fill="none" stroke="midnightblue" d="M390.505,-64.2063C361.252,-51.0724 316.536,-30.9957 291.222,-19.6305"/>
<polygon fill="midnightblue" stroke="midnightblue" points="389.226,-67.4686 399.782,-68.3717 392.093,-61.0827 389.226,-67.4686"/>
</g>
<!-- Node17 -->
<g id="node14" class="node"><title>Node17</title>
<a xlink:href="$classTempl.html" xlink:title="Templ&lt; T &gt;">
<polygon fill="none" stroke="black" points="454.25,-155.5 383.75,-155.5 383.75,-136.5 454.25,-136.5 454.25,-155.5"/>
<text text-anchor="middle" x="419" y="-143.5" font-family="Helvetica,sans-Serif" font-size="10.00">Templ&lt; T &gt;</text>
</a>
</g>
<!-- Node17&#45;&gt;Node16 -->
<g id="edge14" class="edge"><title>Node17&#45;&gt;Node16</title>
<path fill="none" stroke="orange" stroke-dasharray="5,2" d="M419,-126.041C419,-113.472 419,-97.5631 419,-87.8411"/>
<polygon fill="orange" stroke="orange" points="415.5,-126.372 419,-136.372 422.5,-126.372 415.5,-126.372"/>
<text text-anchor="middle" x="433" y="-109.5" font-family="Helvetica,sans-Serif" font-size="10.00">&lt; int &gt;</text>
</g>
<!-- Node18 -->
<g id="node16" class="node"><title>Node18</title>
<a xlink:href="$classUsed.html" xlink:title="Used">
<polygon fill="none" stroke="black" points="515.25,-87.5 474.75,-87.5 474.75,-68.5 515.25,-68.5 515.25,-87.5"/>
<text text-anchor="middle" x="495" y="-75.5" font-family="Helvetica,sans-Serif" font-size="10.00">Used</text>
</a>
</g>
<!-- Node18&#45;&gt;Node9 -->
<g id="edge16" class="edge"><title>Node18&#45;&gt;Node9</title>
<path fill="none" stroke="#9a32cd" stroke-dasharray="5,2" d="M465.294,-68.0874C465.196,-68.0582 465.098,-68.0291 465,-68 406.065,-50.4571 336.943,-30.0943 299.497,-19.0807"/>
<polygon fill="#9a32cd" stroke="#9a32cd" points="464.087,-71.3797 474.67,-70.8883 466.09,-64.6725 464.087,-71.3797"/>
<text text-anchor="middle" x="433.5" y="-41.5" font-family="Helvetica,sans-Serif" font-size="10.00">m_usedClass</text>
</g>
</g>
</svg>
