<?xml version="1.0" encoding="UTF-8" standalone="no"?>
<!DOCTYPE svg PUBLIC "-//W3C//DTD SVG 1.1//EN"
 "http://www.w3.org/Graphics/SVG/1.1/DTD/svg11.dtd">
<!-- Generated by graphviz version 2.28.0 (20120228.1928)
 -->
<!-- Title: G Pages: 1 -->
<svg width="653pt" height="140pt"
 viewBox="0.00 0.00 653.00 140.00" xmlns="http://www.w3.org/2000/svg" xmlns:xlink="http://www.w3.org/1999/xlink">
<g id="graph1" class="graph" transform="scale(1 1) rotate(0) translate(4 136)">
<title>G</title>
<polygon fill="white" stroke="white" points="-4,5 -4,-136 650,-136 650,5 -4,5"/>
<!-- Node1 -->
<g id="node1" class="node"><title>Node1</title>
<polygon fill="#bfbfbf" stroke="black" points="108.5,-112.5 108.5,-131.5 237.5,-131.5 237.5,-112.5 108.5,-112.5"/>
<text text-anchor="middle" x="173" y="-119.5" font-family="Helvetica,sans-Serif" font-size="10.00">TwoBodyDecayGen.cxx</text>
</g>
<!-- Node2 -->
<g id="node3" class="node"><title>Node2</title>
<polygon fill="white" stroke="#bfbfbf" points="-1,-56.5 -1,-75.5 55,-75.5 55,-56.5 -1,-56.5"/>
<text text-anchor="middle" x="27" y="-63.5" font-family="Helvetica,sans-Serif" font-size="10.00">iostream</text>
</g>
<!-- Node1&#45;&gt;Node2 -->
<g id="edge2" class="edge"><title>Node1&#45;&gt;Node2</title>
<path fill="none" stroke="midnightblue" d="M149.866,-112.444C125.518,-103.438 86.9929,-89.1891 59.577,-79.049"/>
<polygon fill="midnightblue" stroke="midnightblue" points="60.6191,-75.7028 50.0259,-75.5164 58.1908,-82.2681 60.6191,-75.7028"/>
</g>
<!-- Node3 -->
<g id="node5" class="node"><title>Node3</title>
<polygon fill="white" stroke="#bfbfbf" points="73,-56.5 73,-75.5 169,-75.5 169,-56.5 73,-56.5"/>
<text text-anchor="middle" x="121" y="-63.5" font-family="Helvetica,sans-Serif" font-size="10.00">boost/foreach.hpp</text>
</g>
<!-- Node1&#45;&gt;Node3 -->
<g id="edge4" class="edge"><title>Node1&#45;&gt;Node3</title>
<path fill="none" stroke="midnightblue" d="M164.413,-112.083C156.841,-104.22 145.622,-92.5688 136.486,-83.0813"/>
<polygon fill="midnightblue" stroke="midnightblue" points="138.885,-80.5266 129.427,-75.7511 133.842,-85.3821 138.885,-80.5266"/>
</g>
<!-- Node4 -->
<g id="node7" class="node"><title>Node4</title>
<polygon fill="white" stroke="#bfbfbf" points="187.5,-56.5 187.5,-75.5 262.5,-75.5 262.5,-56.5 187.5,-56.5"/>
<text text-anchor="middle" x="225" y="-63.5" font-family="Helvetica,sans-Serif" font-size="10.00">TRandom3.h</text>
</g>
<!-- Node1&#45;&gt;Node4 -->
<g id="edge6" class="edge"><title>Node1&#45;&gt;Node4</title>
<path fill="none" stroke="midnightblue" d="M181.587,-112.083C189.159,-104.22 200.378,-92.5688 209.514,-83.0813"/>
<polygon fill="midnightblue" stroke="midnightblue" points="212.158,-85.3821 216.573,-75.7511 207.115,-80.5266 212.158,-85.3821"/>
</g>
<!-- Node5 -->
<g id="node9" class="node"><title>Node5</title>
<a xlink:href="TwoBodyDecayGen_8hxx.html" target="_top" xlink:title="This class implements an interface to generate 2&#45;body decays.">
<polygon fill="white" stroke="black" points="280.5,-56.5 280.5,-75.5 409.5,-75.5 409.5,-56.5 280.5,-56.5"/>
<text text-anchor="middle" x="345" y="-63.5" font-family="Helvetica,sans-Serif" font-size="10.00">TwoBodyDecayGen.hxx</text>
</a>
</g>
<!-- Node1&#45;&gt;Node5 -->
<g id="edge8" class="edge"><title>Node1&#45;&gt;Node5</title>
<path fill="none" stroke="midnightblue" d="M200.254,-112.444C229.441,-103.28 275.921,-88.6876 308.309,-78.5192"/>
<polygon fill="midnightblue" stroke="midnightblue" points="309.381,-81.8512 317.874,-75.5164 307.284,-75.1726 309.381,-81.8512"/>
</g>
<!-- Node6 -->
<g id="node11" class="node"><title>Node6</title>
<polygon fill="white" stroke="#bfbfbf" points="167.5,-0.5 167.5,-19.5 208.5,-19.5 208.5,-0.5 167.5,-0.5"/>
<text text-anchor="middle" x="188" y="-7.5" font-family="Helvetica,sans-Serif" font-size="10.00">string</text>
</g>
<!-- Node5&#45;&gt;Node6 -->
<g id="edge10" class="edge"><title>Node5&#45;&gt;Node6</title>
<path fill="none" stroke="midnightblue" d="M320.123,-56.4435C292.588,-46.973 248.193,-31.7032 218.563,-21.512"/>
<polygon fill="midnightblue" stroke="midnightblue" points="219.344,-18.0797 208.75,-18.1368 217.068,-24.6991 219.344,-18.0797"/>
</g>
<!-- Node7 -->
<g id="node13" class="node"><title>Node7</title>
<polygon fill="white" stroke="#bfbfbf" points="227,-0.5 227,-19.5 271,-19.5 271,-0.5 227,-0.5"/>
<text text-anchor="middle" x="249" y="-7.5" font-family="Helvetica,sans-Serif" font-size="10.00">vector</text>
</g>
<!-- Node5&#45;&gt;Node7 -->
<g id="edge12" class="edge"><title>Node5&#45;&gt;Node7</title>
<path fill="none" stroke="midnightblue" d="M329.576,-56.324C314.46,-47.8215 291.185,-34.7288 273.529,-24.7975"/>
<polygon fill="midnightblue" stroke="midnightblue" points="274.817,-21.5066 264.386,-19.6545 271.386,-27.6077 274.817,-21.5066"/>
</g>
<!-- Node8 -->
<g id="node15" class="node"><title>Node8</title>
<polygon fill="white" stroke="#bfbfbf" points="289,-0.5 289,-19.5 333,-19.5 333,-0.5 289,-0.5"/>
<text text-anchor="middle" x="311" y="-7.5" font-family="Helvetica,sans-Serif" font-size="10.00">TH1.h</text>
</g>
<!-- Node5&#45;&gt;Node8 -->
<g id="edge14" class="edge"><title>Node5&#45;&gt;Node8</title>
<path fill="none" stroke="midnightblue" d="M339.386,-56.083C334.633,-48.5341 327.682,-37.4948 321.848,-28.2298"/>
<polygon fill="midnightblue" stroke="midnightblue" points="324.8,-26.3486 316.51,-19.7511 318.876,-30.0783 324.8,-26.3486"/>
</g>
<!-- Node9 -->
<g id="node17" class="node"><title>Node9</title>
<polygon fill="white" stroke="#bfbfbf" points="351,-0.5 351,-19.5 405,-19.5 405,-0.5 351,-0.5"/>
<text text-anchor="middle" x="378" y="-7.5" font-family="Helvetica,sans-Serif" font-size="10.00">TTree.h</text>
</g>
<!-- Node5&#45;&gt;Node9 -->
<g id="edge16" class="edge"><title>Node5&#45;&gt;Node9</title>
<path fill="none" stroke="midnightblue" d="M350.449,-56.083C355.014,-48.6127 361.668,-37.7244 367.293,-28.5199"/>
<polygon fill="midnightblue" stroke="midnightblue" points="370.424,-30.109 372.652,-19.7511 364.451,-26.4588 370.424,-30.109"/>
</g>
<!-- Node10 -->
<g id="node19" class="node"><title>Node10</title>
<polygon fill="white" stroke="#bfbfbf" points="423,-0.5 423,-19.5 517,-19.5 517,-0.5 423,-0.5"/>
<text text-anchor="middle" x="470" y="-7.5" font-family="Helvetica,sans-Serif" font-size="10.00">TLorentzVector.h</text>
</g>
<!-- Node5&#45;&gt;Node10 -->
<g id="edge18" class="edge"><title>Node5&#45;&gt;Node10</title>
<path fill="none" stroke="midnightblue" d="M364.807,-56.4435C385.287,-47.5961 417.483,-33.6875 440.865,-23.5865"/>
<polygon fill="midnightblue" stroke="midnightblue" points="442.494,-26.6953 450.286,-19.5164 439.718,-20.2692 442.494,-26.6953"/>
</g>
<!-- Node11 -->
<g id="node21" class="node"><title>Node11</title>
<polygon fill="white" stroke="#bfbfbf" points="535,-0.5 535,-19.5 645,-19.5 645,-0.5 535,-0.5"/>
<text text-anchor="middle" x="590" y="-7.5" font-family="Helvetica,sans-Serif" font-size="10.00">TGenPhaseSpace.h</text>
</g>
<!-- Node5&#45;&gt;Node11 -->
<g id="edge20" class="edge"><title>Node5&#45;&gt;Node11</title>
<path fill="none" stroke="midnightblue" d="M383.821,-56.4435C426.561,-47.0234 495.332,-31.8656 541.566,-21.6752"/>
<polygon fill="midnightblue" stroke="midnightblue" points="542.348,-25.0869 551.361,-19.5164 540.842,-18.251 542.348,-25.0869"/>
</g>
</g>
</svg>
