<?xml version="1.0" encoding="UTF-8" standalone="no"?>
<!DOCTYPE svg PUBLIC "-//W3C//DTD SVG 1.1//EN"
 "http://www.w3.org/Graphics/SVG/1.1/DTD/svg11.dtd">
<!-- Generated by graphviz version 2.28.0 (20120228.1928)
 -->
<!-- Title: G Pages: 1 -->
<svg width="549pt" height="84pt"
 viewBox="0.00 0.00 549.00 84.00" xmlns="http://www.w3.org/2000/svg" xmlns:xlink="http://www.w3.org/1999/xlink">
<g id="graph1" class="graph" transform="scale(1 1) rotate(0) translate(4 80)">
<title>G</title>
<polygon fill="white" stroke="white" points="-4,5 -4,-80 546,-80 546,5 -4,5"/>
<!-- Node1 -->
<g id="node1" class="node"><title>Node1</title>
<polygon fill="#bfbfbf" stroke="black" points="142.5,-56.5 142.5,-75.5 271.5,-75.5 271.5,-56.5 142.5,-56.5"/>
<text text-anchor="middle" x="207" y="-63.5" font-family="Helvetica,sans-Serif" font-size="10.00">TwoBodyDecayGen.hxx</text>
</g>
<!-- Node2 -->
<g id="node3" class="node"><title>Node2</title>
<polygon fill="white" stroke="#bfbfbf" points="-0.5,-0.5 -0.5,-19.5 40.5,-19.5 40.5,-0.5 -0.5,-0.5"/>
<text text-anchor="middle" x="20" y="-7.5" font-family="Helvetica,sans-Serif" font-size="10.00">string</text>
</g>
<!-- Node1&#45;&gt;Node2 -->
<g id="edge2" class="edge"><title>Node1&#45;&gt;Node2</title>
<path fill="none" stroke="midnightblue" d="M176.87,-56.4831C147.155,-48.0573 100.201,-34.6736 50.3233,-20.0685"/>
<polygon fill="midnightblue" stroke="midnightblue" points="51.2277,-16.6864 40.6469,-17.2305 49.2576,-23.4035 51.2277,-16.6864"/>
</g>
<!-- Node3 -->
<g id="node5" class="node"><title>Node3</title>
<polygon fill="white" stroke="#bfbfbf" points="59,-0.5 59,-19.5 103,-19.5 103,-0.5 59,-0.5"/>
<text text-anchor="middle" x="81" y="-7.5" font-family="Helvetica,sans-Serif" font-size="10.00">vector</text>
</g>
<!-- Node1&#45;&gt;Node3 -->
<g id="edge4" class="edge"><title>Node1&#45;&gt;Node3</title>
<path fill="none" stroke="midnightblue" d="M187.035,-56.4435C166.391,-47.5961 133.937,-33.6875 110.368,-23.5865"/>
<polygon fill="midnightblue" stroke="midnightblue" points="111.442,-20.2387 100.872,-19.5164 108.684,-26.6727 111.442,-20.2387"/>
</g>
<!-- Node4 -->
<g id="node7" class="node"><title>Node4</title>
<polygon fill="white" stroke="#bfbfbf" points="121,-0.5 121,-19.5 167,-19.5 167,-0.5 121,-0.5"/>
<text text-anchor="middle" x="144" y="-7.5" font-family="Helvetica,sans-Serif" font-size="10.00">deque</text>
</g>
<!-- Node1&#45;&gt;Node4 -->
<g id="edge6" class="edge"><title>Node1&#45;&gt;Node4</title>
<path fill="none" stroke="midnightblue" d="M196.878,-56.324C187.474,-48.2631 173.256,-36.0765 161.931,-26.3695"/>
<polygon fill="midnightblue" stroke="midnightblue" points="164.177,-23.6844 154.306,-19.8339 159.621,-28.9993 164.177,-23.6844"/>
</g>
<!-- Node5 -->
<g id="node9" class="node"><title>Node5</title>
<polygon fill="white" stroke="#bfbfbf" points="185,-0.5 185,-19.5 229,-19.5 229,-0.5 185,-0.5"/>
<text text-anchor="middle" x="207" y="-7.5" font-family="Helvetica,sans-Serif" font-size="10.00">TH1.h</text>
</g>
<!-- Node1&#45;&gt;Node5 -->
<g id="edge8" class="edge"><title>Node1&#45;&gt;Node5</title>
<path fill="none" stroke="midnightblue" d="M207,-56.083C207,-49.0059 207,-38.8611 207,-29.9865"/>
<polygon fill="midnightblue" stroke="midnightblue" points="210.5,-29.751 207,-19.7511 203.5,-29.7511 210.5,-29.751"/>
</g>
<!-- Node6 -->
<g id="node11" class="node"><title>Node6</title>
<polygon fill="white" stroke="#bfbfbf" points="247,-0.5 247,-19.5 301,-19.5 301,-0.5 247,-0.5"/>
<text text-anchor="middle" x="274" y="-7.5" font-family="Helvetica,sans-Serif" font-size="10.00">TTree.h</text>
</g>
<!-- Node1&#45;&gt;Node6 -->
<g id="edge10" class="edge"><title>Node1&#45;&gt;Node6</title>
<path fill="none" stroke="midnightblue" d="M217.765,-56.324C227.766,-48.2631 242.887,-36.0765 254.93,-26.3695"/>
<polygon fill="midnightblue" stroke="midnightblue" points="257.45,-28.8343 263.039,-19.8339 253.057,-23.3841 257.45,-28.8343"/>
</g>
<!-- Node7 -->
<g id="node13" class="node"><title>Node7</title>
<polygon fill="white" stroke="#bfbfbf" points="319,-0.5 319,-19.5 413,-19.5 413,-0.5 319,-0.5"/>
<text text-anchor="middle" x="366" y="-7.5" font-family="Helvetica,sans-Serif" font-size="10.00">TLorentzVector.h</text>
</g>
<!-- Node1&#45;&gt;Node7 -->
<g id="edge12" class="edge"><title>Node1&#45;&gt;Node7</title>
<path fill="none" stroke="midnightblue" d="M232.194,-56.4435C258.943,-47.3591 301.403,-32.9388 331.305,-22.7831"/>
<polygon fill="midnightblue" stroke="midnightblue" points="332.581,-26.0464 340.924,-19.5164 330.329,-19.4182 332.581,-26.0464"/>
</g>
<!-- Node8 -->
<g id="node15" class="node"><title>Node8</title>
<polygon fill="white" stroke="#bfbfbf" points="431,-0.5 431,-19.5 541,-19.5 541,-0.5 431,-0.5"/>
<text text-anchor="middle" x="486" y="-7.5" font-family="Helvetica,sans-Serif" font-size="10.00">TGenPhaseSpace.h</text>
</g>
<!-- Node1&#45;&gt;Node8 -->
<g id="edge14" class="edge"><title>Node1&#45;&gt;Node8</title>
<path fill="none" stroke="midnightblue" d="M251.208,-56.4435C300.287,-46.9444 379.51,-31.611 432.164,-21.4198"/>
<polygon fill="midnightblue" stroke="midnightblue" points="432.846,-24.853 441.998,-19.5164 431.516,-17.9805 432.846,-24.853"/>
</g>
</g>
</svg>
