<?xml version="1.0" encoding="UTF-8" standalone="no"?>
<!DOCTYPE svg PUBLIC "-//W3C//DTD SVG 1.1//EN"
 "http://www.w3.org/Graphics/SVG/1.1/DTD/svg11.dtd">
<!-- Generated by graphviz version 2.28.0 (20120228.1928)
 -->
<!-- Title: G Pages: 1 -->
<!--zoomable 140 -->
<svg id="main" version="1.1" xmlns="http://www.w3.org/2000/svg" xmlns:xlink="http://www.w3.org/1999/xlink" xml:space="preserve" onload="init(evt)">
        <defs>
                <circle id="rim" cx="0" cy="0" r="7"/>
                <circle id="rim2" cx="0" cy="0" r="3.5"/>
                <g id="zoomPlus">
                        <use xlink:href="#rim" fill="#404040">
                                <set attributeName="fill" to="#808080" begin="zoomplus.mouseover" end="zoomplus.mouseout"/>
                        </use>
                        <path d="M-4,0h8M0,-4v8" fill="none" stroke="white" stroke-width="1.5" pointer-events="none"/>
                </g>
                <g id="zoomMin">
                        <use xlink:href="#rim" fill="#404040">
                                <set attributeName="fill" to="#808080" begin="zoomminus.mouseover" end="zoomminus.mouseout"/>
                        </use>
                        <path d="M-4,0h8" fill="none" stroke="white" stroke-width="1.5" pointer-events="none"/>
                </g>
                <g id="dirArrow">
                        <path fill="none" stroke="white" stroke-width="1.5" d="M0,-3.0v7 M-2.5,-0.5L0,-3.0L2.5,-0.5"/>
                </g>
               <g id="resetDef">
                       <use xlink:href="#rim2" fill="#404040">
                               <set attributeName="fill" to="#808080" begin="reset.mouseover" end="reset.mouseout"/>
                       </use>
               </g>
        </defs>

<script type="text/javascript">
var viewWidth = 687;
var viewHeight = 140;
var sectionId = 'dynsection-0';
</script>
<script xlink:href="svgpan.js"/>
<svg id="graph" class="graph">
<g id="viewport">
<title>G</title>
<polygon fill="white" stroke="white" points="-4,5 -4,-136 684,-136 684,5 -4,5"/>
<!-- Node1 -->
<g id="node1" class="node"><title>Node1</title>
<polygon fill="#bfbfbf" stroke="black" points="108.5,-112.5 108.5,-131.5 237.5,-131.5 237.5,-112.5 108.5,-112.5"/>
<text text-anchor="middle" x="173" y="-119.5" font-family="Helvetica,sans-Serif" font-size="10.00">TwoBodyDecayGen.cxx</text>
</g>
<!-- Node2 -->
<g id="node3" class="node"><title>Node2</title>
<polygon fill="white" stroke="#bfbfbf" points="-1,-56.5 -1,-75.5 55,-75.5 55,-56.5 -1,-56.5"/>
<text text-anchor="middle" x="27" y="-63.5" font-family="Helvetica,sans-Serif" font-size="10.00">iostream</text>
</g>
<!-- Node1&#45;&gt;Node2 -->
<g id="edge2" class="edge"><title>Node1&#45;&gt;Node2</title>
<path fill="none" stroke="midnightblue" d="M149.866,-112.444C125.518,-103.438 86.9929,-89.1891 59.577,-79.049"/>
<polygon fill="midnightblue" stroke="midnightblue" points="60.6191,-75.7028 50.0259,-75.5164 58.1908,-82.2681 60.6191,-75.7028"/>
</g>
<!-- Node3 -->
<g id="node5" class="node"><title>Node3</title>
<polygon fill="white" stroke="#bfbfbf" points="73,-56.5 73,-75.5 169,-75.5 169,-56.5 73,-56.5"/>
<text text-anchor="middle" x="121" y="-63.5" font-family="Helvetica,sans-Serif" font-size="10.00">boost/foreach.hpp</text>
</g>
<!-- Node1&#45;&gt;Node3 -->
<g id="edge4" class="edge"><title>Node1&#45;&gt;Node3</title>
<path fill="none" stroke="midnightblue" d="M164.413,-112.083C156.841,-104.22 145.622,-92.5688 136.486,-83.0813"/>
<polygon fill="midnightblue" stroke="midnightblue" points="138.885,-80.5266 129.427,-75.7511 133.842,-85.3821 138.885,-80.5266"/>
</g>
<!-- Node4 -->
<g id="node7" class="node"><title>Node4</title>
<polygon fill="white" stroke="#bfbfbf" points="187.5,-56.5 187.5,-75.5 262.5,-75.5 262.5,-56.5 187.5,-56.5"/>
<text text-anchor="middle" x="225" y="-63.5" font-family="Helvetica,sans-Serif" font-size="10.00">TRandom3.h</text>
</g>
<!-- Node1&#45;&gt;Node4 -->
<g id="edge6" class="edge"><title>Node1&#45;&gt;Node4</title>
<path fill="none" stroke="midnightblue" d="M181.587,-112.083C189.159,-104.22 200.378,-92.5688 209.514,-83.0813"/>
<polygon fill="midnightblue" stroke="midnightblue" points="212.158,-85.3821 216.573,-75.7511 207.115,-80.5266 212.158,-85.3821"/>
</g>
<!-- Node5 -->
<g id="node9" class="node"><title>Node5</title>
<a xlink:href="TwoBodyDecayGen_8hxx.html" target="_top" xlink:title="This class implements an interface to generate 2&#45;body decays.">
<polygon fill="white" stroke="black" points="280.5,-56.5 280.5,-75.5 409.5,-75.5 409.5,-56.5 280.5,-56.5"/>
<text text-anchor="middle" x="345" y="-63.5" font-family="Helvetica,sans-Serif" font-size="10.00">TwoBodyDecayGen.hxx</text>
</a>
</g>
<!-- Node1&#45;&gt;Node5 -->
<g id="edge8" class="edge"><title>Node1&#45;&gt;Node5</title>
<path fill="none" stroke="midnightblue" d="M200.254,-112.444C229.441,-103.28 275.921,-88.6876 308.309,-78.5192"/>
<polygon fill="midnightblue" stroke="midnightblue" points="309.381,-81.8512 317.874,-75.5164 307.284,-75.1726 309.381,-81.8512"/>
</g>
<!-- Node6 -->
<g id="node11" class="node"><title>Node6</title>
<polygon fill="white" stroke="#bfbfbf" points="137.5,-0.5 137.5,-19.5 178.5,-19.5 178.5,-0.5 137.5,-0.5"/>
<text text-anchor="middle" x="158" y="-7.5" font-family="Helvetica,sans-Serif" font-size="10.00">string</text>
</g>
<!-- Node5&#45;&gt;Node6 -->
<g id="edge10" class="edge"><title>Node5&#45;&gt;Node6</title>
<path fill="none" stroke="midnightblue" d="M314.87,-56.4831C285.155,-48.0573 238.201,-34.6736 188.323,-20.0685"/>
<polygon fill="midnightblue" stroke="midnightblue" points="189.228,-16.6864 178.647,-17.2305 187.258,-23.4035 189.228,-16.6864"/>
</g>
<!-- Node7 -->
<g id="node13" class="node"><title>Node7</title>
<polygon fill="white" stroke="#bfbfbf" points="197,-0.5 197,-19.5 241,-19.5 241,-0.5 197,-0.5"/>
<text text-anchor="middle" x="219" y="-7.5" font-family="Helvetica,sans-Serif" font-size="10.00">vector</text>
</g>
<!-- Node5&#45;&gt;Node7 -->
<g id="edge12" class="edge"><title>Node5&#45;&gt;Node7</title>
<path fill="none" stroke="midnightblue" d="M325.035,-56.4435C304.391,-47.5961 271.937,-33.6875 248.368,-23.5865"/>
<polygon fill="midnightblue" stroke="midnightblue" points="249.442,-20.2387 238.872,-19.5164 246.684,-26.6727 249.442,-20.2387"/>
</g>
<!-- Node8 -->
<g id="node15" class="node"><title>Node8</title>
<polygon fill="white" stroke="#bfbfbf" points="259,-0.5 259,-19.5 305,-19.5 305,-0.5 259,-0.5"/>
<text text-anchor="middle" x="282" y="-7.5" font-family="Helvetica,sans-Serif" font-size="10.00">deque</text>
</g>
<!-- Node5&#45;&gt;Node8 -->
<g id="edge14" class="edge"><title>Node5&#45;&gt;Node8</title>
<path fill="none" stroke="midnightblue" d="M334.878,-56.324C325.474,-48.2631 311.256,-36.0765 299.931,-26.3695"/>
<polygon fill="midnightblue" stroke="midnightblue" points="302.177,-23.6844 292.306,-19.8339 297.621,-28.9993 302.177,-23.6844"/>
</g>
<!-- Node9 -->
<g id="node17" class="node"><title>Node9</title>
<polygon fill="white" stroke="#bfbfbf" points="323,-0.5 323,-19.5 367,-19.5 367,-0.5 323,-0.5"/>
<text text-anchor="middle" x="345" y="-7.5" font-family="Helvetica,sans-Serif" font-size="10.00">TH1.h</text>
</g>
<!-- Node5&#45;&gt;Node9 -->
<g id="edge16" class="edge"><title>Node5&#45;&gt;Node9</title>
<path fill="none" stroke="midnightblue" d="M345,-56.083C345,-49.0059 345,-38.8611 345,-29.9865"/>
<polygon fill="midnightblue" stroke="midnightblue" points="348.5,-29.751 345,-19.7511 341.5,-29.7511 348.5,-29.751"/>
</g>
<!-- Node10 -->
<g id="node19" class="node"><title>Node10</title>
<polygon fill="white" stroke="#bfbfbf" points="385,-0.5 385,-19.5 439,-19.5 439,-0.5 385,-0.5"/>
<text text-anchor="middle" x="412" y="-7.5" font-family="Helvetica,sans-Serif" font-size="10.00">TTree.h</text>
</g>
<!-- Node5&#45;&gt;Node10 -->
<g id="edge18" class="edge"><title>Node5&#45;&gt;Node10</title>
<path fill="none" stroke="midnightblue" d="M355.765,-56.324C365.766,-48.2631 380.887,-36.0765 392.93,-26.3695"/>
<polygon fill="midnightblue" stroke="midnightblue" points="395.45,-28.8343 401.039,-19.8339 391.057,-23.3841 395.45,-28.8343"/>
</g>
<!-- Node11 -->
<g id="node21" class="node"><title>Node11</title>
<polygon fill="white" stroke="#bfbfbf" points="457,-0.5 457,-19.5 551,-19.5 551,-0.5 457,-0.5"/>
<text text-anchor="middle" x="504" y="-7.5" font-family="Helvetica,sans-Serif" font-size="10.00">TLorentzVector.h</text>
</g>
<!-- Node5&#45;&gt;Node11 -->
<g id="edge20" class="edge"><title>Node5&#45;&gt;Node11</title>
<path fill="none" stroke="midnightblue" d="M370.194,-56.4435C396.943,-47.3591 439.403,-32.9388 469.305,-22.7831"/>
<polygon fill="midnightblue" stroke="midnightblue" points="470.581,-26.0464 478.924,-19.5164 468.329,-19.4182 470.581,-26.0464"/>
</g>
<!-- Node12 -->
<g id="node23" class="node"><title>Node12</title>
<polygon fill="white" stroke="#bfbfbf" points="569,-0.5 569,-19.5 679,-19.5 679,-0.5 569,-0.5"/>
<text text-anchor="middle" x="624" y="-7.5" font-family="Helvetica,sans-Serif" font-size="10.00">TGenPhaseSpace.h</text>
</g>
<!-- Node5&#45;&gt;Node12 -->
<g id="edge22" class="edge"><title>Node5&#45;&gt;Node12</title>
<path fill="none" stroke="midnightblue" d="M389.208,-56.4435C438.287,-46.9444 517.51,-31.611 570.164,-21.4198"/>
<polygon fill="midnightblue" stroke="midnightblue" points="570.846,-24.853 579.998,-19.5164 569.516,-17.9805 570.846,-24.853"/>
</g>
</g>
</svg>
        <g id="navigator" transform="translate(0 0)" fill="#404254">
                <rect fill="#f2f5e9" fill-opacity="0.5" stroke="#606060" stroke-width=".5" x="0" y="0" width="60" height="60"/>
                <use id="zoomplus" xlink:href="#zoomPlus" x="17" y="9" onmousedown="handleZoom(evt,'in')"/>
                <use id="zoomminus" xlink:href="#zoomMin" x="42" y="9" onmousedown="handleZoom(evt,'out')"/>
                <use id="reset" xlink:href="#resetDef" x="30" y="36" onmousedown="handleReset()"/>
                <g id="arrowUp" xlink:href="#dirArrow" transform="translate(30 24)" onmousedown="handlePan(0,-1)">
                  <use xlink:href="#rim" fill="#404040">
                        <set attributeName="fill" to="#808080" begin="arrowUp.mouseover" end="arrowUp.mouseout"/>
                  </use>
                  <path fill="none" stroke="white" stroke-width="1.5" d="M0,-3.0v7 M-2.5,-0.5L0,-3.0L2.5,-0.5"/>
                </g>
                <g id="arrowRight" xlink:href="#dirArrow" transform="rotate(90) translate(36 -43)" onmousedown="handlePan(1,0)">
                  <use xlink:href="#rim" fill="#404040">
                        <set attributeName="fill" to="#808080" begin="arrowRight.mouseover" end="arrowRight.mouseout"/>
                  </use>
                  <path fill="none" stroke="white" stroke-width="1.5" d="M0,-3.0v7 M-2.5,-0.5L0,-3.0L2.5,-0.5"/>
                </g>
                <g id="arrowDown" xlink:href="#dirArrow" transform="rotate(180) translate(-30 -48)" onmousedown="handlePan(0,1)">
                  <use xlink:href="#rim" fill="#404040">
                        <set attributeName="fill" to="#808080" begin="arrowDown.mouseover" end="arrowDown.mouseout"/>
                  </use>
                  <path fill="none" stroke="white" stroke-width="1.5" d="M0,-3.0v7 M-2.5,-0.5L0,-3.0L2.5,-0.5"/>
                </g>
                <g id="arrowLeft" xlink:href="#dirArrow" transform="rotate(270) translate(-36 17)" onmousedown="handlePan(-1,0)">
                  <use xlink:href="#rim" fill="#404040">
                        <set attributeName="fill" to="#808080" begin="arrowLeft.mouseover" end="arrowLeft.mouseout"/>
                  </use>
                  <path fill="none" stroke="white" stroke-width="1.5" d="M0,-3.0v7 M-2.5,-0.5L0,-3.0L2.5,-0.5"/>
                </g>
        </g>
        <svg viewBox="0 0 15 15" width="100%" height="30px" preserveAspectRatio="xMaxYMin meet">
         <g id="arrow_out" transform="scale(0.3 0.3)">
          <a xlink:href="TwoBodyDecayGen_8cxx__incl_org.svg" target="_base">
           <rect id="button" ry="5" rx="5" y="6" x="6" height="38" width="38"
                fill="#f2f5e9" fill-opacity="0.5" stroke="#606060" stroke-width="1.0"/>
           <path id="arrow"
             d="M 11.500037,31.436501 C 11.940474,20.09759 22.043105,11.32322 32.158766,21.979434 L 37.068811,17.246167 C 37.068811,17.246167 37.088388,32 37.088388,32 L 22.160133,31.978069 C 22.160133,31.978069 26.997745,27.140456 26.997745,27.140456 C 18.528582,18.264221 13.291696,25.230495 11.500037,31.436501 z"
             style="fill:#404040;"/>
          </a>
         </g>
        </svg>
</svg>
