<?xml version="1.0" encoding="UTF-8" standalone="no"?>
<!DOCTYPE svg PUBLIC "-//W3C//DTD SVG 1.1//EN"
 "http://www.w3.org/Graphics/SVG/1.1/DTD/svg11.dtd">
<!-- Generated by graphviz version 2.28.0 (20120228.1928)
 -->
<!-- Title: G Pages: 1 -->
<svg width="485pt" height="84pt"
 viewBox="0.00 0.00 485.00 84.00" xmlns="http://www.w3.org/2000/svg" xmlns:xlink="http://www.w3.org/1999/xlink">
<g id="graph1" class="graph" transform="scale(1 1) rotate(0) translate(4 80)">
<title>G</title>
<polygon fill="white" stroke="white" points="-4,5 -4,-80 482,-80 482,5 -4,5"/>
<!-- Node1 -->
<g id="node1" class="node"><title>Node1</title>
<polygon fill="#bfbfbf" stroke="black" points="111.5,-56.5 111.5,-75.5 240.5,-75.5 240.5,-56.5 111.5,-56.5"/>
<text text-anchor="middle" x="176" y="-63.5" font-family="Helvetica,sans-Serif" font-size="10.00">TwoBodyDecayGen.hxx</text>
</g>
<!-- Node2 -->
<g id="node3" class="node"><title>Node2</title>
<polygon fill="white" stroke="#bfbfbf" points="-0.5,-0.5 -0.5,-19.5 40.5,-19.5 40.5,-0.5 -0.5,-0.5"/>
<text text-anchor="middle" x="20" y="-7.5" font-family="Helvetica,sans-Serif" font-size="10.00">string</text>
</g>
<!-- Node1&#45;&gt;Node2 -->
<g id="edge2" class="edge"><title>Node1&#45;&gt;Node2</title>
<path fill="none" stroke="midnightblue" d="M151.281,-56.4435C123.922,-46.973 79.8092,-31.7032 50.3679,-21.512"/>
<polygon fill="midnightblue" stroke="midnightblue" points="51.2123,-18.1005 40.6175,-18.1368 48.9224,-24.7154 51.2123,-18.1005"/>
</g>
<!-- Node3 -->
<g id="node5" class="node"><title>Node3</title>
<polygon fill="white" stroke="#bfbfbf" points="59,-0.5 59,-19.5 103,-19.5 103,-0.5 59,-0.5"/>
<text text-anchor="middle" x="81" y="-7.5" font-family="Helvetica,sans-Serif" font-size="10.00">vector</text>
</g>
<!-- Node1&#45;&gt;Node3 -->
<g id="edge4" class="edge"><title>Node1&#45;&gt;Node3</title>
<path fill="none" stroke="midnightblue" d="M160.737,-56.324C145.779,-47.8215 122.745,-34.7288 105.273,-24.7975"/>
<polygon fill="midnightblue" stroke="midnightblue" points="106.649,-21.5534 96.2255,-19.6545 103.19,-27.639 106.649,-21.5534"/>
</g>
<!-- Node4 -->
<g id="node7" class="node"><title>Node4</title>
<polygon fill="white" stroke="#bfbfbf" points="121,-0.5 121,-19.5 165,-19.5 165,-0.5 121,-0.5"/>
<text text-anchor="middle" x="143" y="-7.5" font-family="Helvetica,sans-Serif" font-size="10.00">TH1.h</text>
</g>
<!-- Node1&#45;&gt;Node4 -->
<g id="edge6" class="edge"><title>Node1&#45;&gt;Node4</title>
<path fill="none" stroke="midnightblue" d="M170.551,-56.083C165.986,-48.6127 159.332,-37.7244 153.707,-28.5199"/>
<polygon fill="midnightblue" stroke="midnightblue" points="156.549,-26.4588 148.348,-19.7511 150.576,-30.109 156.549,-26.4588"/>
</g>
<!-- Node5 -->
<g id="node9" class="node"><title>Node5</title>
<polygon fill="white" stroke="#bfbfbf" points="183,-0.5 183,-19.5 237,-19.5 237,-0.5 183,-0.5"/>
<text text-anchor="middle" x="210" y="-7.5" font-family="Helvetica,sans-Serif" font-size="10.00">TTree.h</text>
</g>
<!-- Node1&#45;&gt;Node5 -->
<g id="edge8" class="edge"><title>Node1&#45;&gt;Node5</title>
<path fill="none" stroke="midnightblue" d="M181.614,-56.083C186.367,-48.5341 193.318,-37.4948 199.152,-28.2298"/>
<polygon fill="midnightblue" stroke="midnightblue" points="202.124,-30.0783 204.49,-19.7511 196.2,-26.3486 202.124,-30.0783"/>
</g>
<!-- Node6 -->
<g id="node11" class="node"><title>Node6</title>
<polygon fill="white" stroke="#bfbfbf" points="255,-0.5 255,-19.5 349,-19.5 349,-0.5 255,-0.5"/>
<text text-anchor="middle" x="302" y="-7.5" font-family="Helvetica,sans-Serif" font-size="10.00">TLorentzVector.h</text>
</g>
<!-- Node1&#45;&gt;Node6 -->
<g id="edge10" class="edge"><title>Node1&#45;&gt;Node6</title>
<path fill="none" stroke="midnightblue" d="M195.965,-56.4435C216.609,-47.5961 249.063,-33.6875 272.632,-23.5865"/>
<polygon fill="midnightblue" stroke="midnightblue" points="274.316,-26.6727 282.128,-19.5164 271.558,-20.2387 274.316,-26.6727"/>
</g>
<!-- Node7 -->
<g id="node13" class="node"><title>Node7</title>
<polygon fill="white" stroke="#bfbfbf" points="367,-0.5 367,-19.5 477,-19.5 477,-0.5 367,-0.5"/>
<text text-anchor="middle" x="422" y="-7.5" font-family="Helvetica,sans-Serif" font-size="10.00">TGenPhaseSpace.h</text>
</g>
<!-- Node1&#45;&gt;Node7 -->
<g id="edge12" class="edge"><title>Node1&#45;&gt;Node7</title>
<path fill="none" stroke="midnightblue" d="M214.979,-56.4435C257.894,-47.0234 326.946,-31.8656 373.369,-21.6752"/>
<polygon fill="midnightblue" stroke="midnightblue" points="374.186,-25.0792 383.203,-19.5164 372.685,-18.242 374.186,-25.0792"/>
</g>
</g>
</svg>
